<?xml version="1.0" encoding="UTF-8"?>
<!DOCTYPE svg PUBLIC "-//W3C//DTD SVG 1.1//EN" "http://www.w3.org/Graphics/SVG/1.1/DTD/svg11.dtd">
<svg xmlns="http://www.w3.org/2000/svg" version="1.1" width="48px" height="43px" style="shape-rendering:geometricPrecision; text-rendering:geometricPrecision; image-rendering:optimizeQuality; fill-rule:evenodd; clip-rule:evenodd" xmlns:xlink="http://www.w3.org/1999/xlink">
<g><path style="opacity:0.84" fill="#fefffe" d="M 2.5,8.5 C 5.51838,8.33537 8.51838,8.50204 11.5,9C 13.9609,13.4215 16.2942,17.9215 18.5,22.5C 22.8333,23.8333 27.1667,23.8333 31.5,22.5C 32.8333,19.8333 34.1667,17.1667 35.5,14.5C 37.1667,13.1667 38.8333,13.1667 40.5,14.5C 38.5,18.5 36.5,22.5 34.5,26.5C 28.1667,27.8333 21.8333,27.8333 15.5,26.5C 13.1667,21.8333 10.8333,17.1667 8.5,12.5C 6.60395,11.5344 4.60395,11.2011 2.5,11.5C 2.5,10.5 2.5,9.5 2.5,8.5 Z"/></g>
<g><path style="opacity:0.769" fill="#fefffe" d="M 15.5,29.5 C 17.1667,29.5 18.8333,29.5 20.5,29.5C 20.5,31.1667 20.5,32.8333 20.5,34.5C 18.8333,34.5 17.1667,34.5 15.5,34.5C 15.5,32.8333 15.5,31.1667 15.5,29.5 Z"/></g>
<g><path style="opacity:0.769" fill="#fefffe" d="M 28.5,29.5 C 30.1667,29.5 31.8333,29.5 33.5,29.5C 33.5,31.1667 33.5,32.8333 33.5,34.5C 31.8333,34.5 30.1667,34.5 28.5,34.5C 28.5,32.8333 28.5,31.1667 28.5,29.5 Z"/></g>
</svg>
