<svg width="429" height="53.887073296072266" viewBox="0 0 370 46.47603058169403" class="looka-1j8o68f"><defs id="SvgjsDefs2074"></defs><g id="SvgjsG2075" featurekey="QMusi1-0" transform="matrix(0.12138810121842165,0,0,0.12138810121842165,0.040191772386090965,-12.5937317918642)" fill="#111111"><g xmlns="http://www.w3.org/2000/svg"><path d="M330.446,332.833c0-6.334-4-37.333-22.5-51.667c-19.922-15.435-50.167-10.833-63-8.667c2-2.333,4.205-5.642,5.333-9.667   c1.21-4.314,1.331-11.823,1.397-15.836c0.099-5.979-0.562-7.756-6.407-9.443c-7.925-2.287-13.823-2.888-25.323-2.055   c-12.164,0.882-42.333,3-56,4s-25.333,3.333-29,4.667s-7.667,2.667-6.667,6.333s2,7.333,4.333,12   c-9.667-13.333-26.721-30.194-35.667-34.667C91.28,225,80.78,227.5,73.78,230c-4.963,1.772-13.667,7.5-18.5,10.5l-8-13.667   c4-1.167,7.333-3.667,10.333-6c6.667-1.333,16.018-6.019,23.667-13.667c6-6,9.477-15.101,7.667-30.667   c-1.667-14.333-7.656-44.02-31.333-57c-16.417-9-35.029-8.72-49.592-5.339c-8.484,1.97-9.297,5.071-7.672,11.118   c0.347,1.291,8.28,29.744,16.028,57.689l-3.598-0.635L11.613,184l0.886,3.15l-4.386,4.184c0,0,5.667,35.5,6.5,40.333   c0.745,4.321,1,6.5,3.333,10.167c3.453,5.426,40,61,40,61L66.28,303l3.622-2.264c12.447,20.832,24.789,41.495,26.711,44.764   c3.333,5.667,5.254,5.321,9.5,2.833c4.833-2.833,38.5-24.208,38.5-24.208c1.833,12.208-14.49,26.698-20.5,37.625   c-5.5,10-3.833,21.417-1.5,27.75s6,5.001,12.333,3.667c4.535-0.955,13.046-2.937,23.409-5.425c0.153,0.738,0.37,1.311,0.757,1.591   c1.273,0.922,4.25,0.917,5-0.458c0.326-0.599,0.561-1.465,0.688-2.419l22.812-1.122V399.5c0,0-76.583,3.083-78.75,3.167   s-1.833,1.166-0.25,2.916V418c-0.833,0.167-1.5,0.75-1.333,1.583c-1.583,0.75-1.346,2.423,0.759,3.104   c3.032,0.981,5.803,0.749,8.324-0.02c1.917-0.584,2.25-2.167,0.583-2.917c0-0.833-0.49-1.781-1.667-1.875v-4.708l20.083,3.75   c0,0-53.5,17.416-55.417,18.166c-1.617,0.633-1.75,1.334-0.333,2.75v14c-1.167,0-2.25,0.417-2.167,2   c-1.167,0.667-1.647,2.145,0.667,3.084c2.667,1.083,7.939,1.016,10.383,0.317c2.054-0.587,3.121-2.234,1.205-3.401   c0-0.834-0.545-1.873-1.754-1.989v-6.011l107.833-19.666l21.667,27.5v12.749c-0.833,0.167-1.941,1.274-1.941,2.481   c-2.375,1.167-1.689,2.897,1,3.725c2.997,0.922,8.713,0.931,11.732-0.122c1.924-0.671,2.375-2.458,0.208-3.499   c0.065-1.507-0.998-2.569-2.333-2.682V450c2.625-1.75,1.833-3.375,1-4.875s-10-18.958-10-18.958l98,5.5v6.541   c-1.167,0.167-1.688,1.204-1.688,2.298c-1.977,0.459-2.523,2.268-0.016,3.111c2.871,0.966,7.675,0.883,10.402,0.025   c2.177-0.685,2.117-2.137,0.01-3.137c0-1.25-0.583-2.214-1.708-2.422v-15.417c1.625-1.042,1.625-1.792-0.011-2.11L247.947,407   v-10.667L205.78,398.5v-14l46.167-19l-0.059-1.865c1.189-0.337,2.394-0.679,3.623-1.027c0.269,1.161,0.526,2.38,1.103,2.726   c1.348,0.809,3.316,0.738,3.75-0.708c0.277-0.922,0.323-2.141,0.197-3.452c23.276-6.616,50.788-14.478,59.053-16.673   C330.28,341.667,330.446,339.167,330.446,332.833z M42.28,254.5c0.426,0.719,2.007,3.367,4.372,7.327l-4.071,2.442l-15.467-25.935   l-9.667-39.167l3.137-1.015c3.928,14.196,6.868,24.872,7.029,25.598c0.5,2.25,1.114,4.337,3.25,5c2.417,0.75,4,0.5,6.75,0.417   l9.333,16c-2.167,1.667-3.5,2.5-5.083,3.792S40.487,251.476,42.28,254.5z M60.113,293.667L48.1,273.524l4.078-2.447   c3.515,5.883,7.679,12.85,12.031,20.133L60.113,293.667z"></path><path d="M567.363,311.75c-13.5-25.25-32.615-32.2-46-37.5c-12.417-4.917-26.083-6.25-43.083-4.417   c-8.392,0.905-17.834,1-32.334,0.667c-9.012-0.207-18.844,0.574-25.833,1.333c-15.333,1.667-26.301,5.835-36.25,12.167   c-8.25,5.25-12.858,11.984-16.512,20.5c-3.023,7.048-7.987,20.155-9.488,30.5c-1.332,9.182,1.256,12.721,8.25,13.167   c6.494,0.415,44.722,0.829,57.6,0.959c-0.003,2.11,0.425,3.259,2.275,3.374c1.715,0.107,2.508-1.079,2.857-3.152l26.435,5.319   v5.458l2.166,1.375v33.167l-2,1.333v7.667l-70.333,1.833c-2.25,0.167-2.25,0.5-1.167,1.917v15.416   c-1.833,0.75-2.04,2.193-0.333,2.75c1.917,0.625,3.745,0.564,5.667,0.084c2-0.5,2.166-1.917,0-2.917V414l34.333,5.5l-34,18.167   c-2.167,1.334-1.667,1.916-0.5,3.166v15.75c-1.5,0.5-2.917,2.448-0.492,3.487c2.462,1.054,5.479,0.793,7.121,0   c1.846-0.893,1.538-2.57-0.796-3.57v-10l62.5-19.833l10.834,0.166l78.166,21.834v11c-1.916,0.666-1.976,2.319,0,3   c2.417,0.833,5.48,0.551,7.139-0.068c1.835-0.685,1.724-2.155,0.028-3.099V443c1.417-1.333,1.583-1.833-0.167-2.667   c-1.621-0.772-50.333-21.666-50.333-21.666l20.5-2.834v7.751c-1.333,0.667-2.166,1.583-0.583,2.416c1.36,0.716,5,0.75,6.416,0.167   c1.486-0.612,1.573-1.636,0-2.583V409c0.666-1,1.834-1.667-0.5-1.833c-2.832-0.201-58.833-3.167-58.833-3.167v-8l-2.25-1.5v-33   l2.5-1.375V354.5l30.75-5.167c0,0,1.116-0.002,3.059-0.005c0.003,2.086,0.436,3.224,2.274,3.339c1.769,0.11,2.558-1.15,2.89-3.344   c14.023-0.011,42.175-0.008,53.777,0.177C578.863,349.75,580.863,337,567.363,311.75z"></path></g></g><g id="SvgjsG2076" featurekey="UyNsn2-0" transform="matrix(3.1789301084512833,0,0,3.1789301084512833,85.74023923293704,-17.611266616225553)" fill="#111111"><path d="M1.88 5.720000000000001 l3.42 0 l3.04 7.44 l0.23 -0.55 l0.57 -1.37 l0.73 -1.79 l0.73 -1.8 l0.56 -1.38 l0.22 -0.55 l3.2 0 l0.7 14.28 l-3.3 0 l-0.14 -8.34 l-2.34 5.44 l-2.42 0 l-2.42 -5.44 l-0.22 8.34 l-3.1 0 z M22.2 9.44 c0.69334 0 1.34 0.09668 1.94 0.29002 s1.1167 0.50334 1.55 0.93 s0.77334 0.98 1.02 1.66 s0.37 1.5 0.37 2.46 s-0.12334 1.78 -0.37 2.46 s-0.58666 1.2333 -1.02 1.66 s-0.95 0.73666 -1.55 0.93 s-1.2467 0.29 -1.94 0.29 c-0.70666 0 -1.3567 -0.09666 -1.95 -0.29 s-1.1067 -0.50334 -1.54 -0.93 s-0.77334 -0.98 -1.02 -1.66 s-0.37 -1.5 -0.37 -2.46 c0 -0.94666 0.12334 -1.7567 0.37 -2.43 s0.58666 -1.2267 1.02 -1.66 s0.94668 -0.75 1.54 -0.95 s1.2433 -0.3 1.95 -0.3 z M22.2 17.5 c0.6 0 1.07 -0.2 1.41 -0.6 s0.51 -1.1067 0.51 -2.12 s-0.17 -1.7233 -0.51 -2.13 s-0.81 -0.61 -1.41 -0.61 c-0.58666 0 -1.0567 0.21 -1.41 0.63 s-0.53 1.1233 -0.53 2.11 c0 1.0133 0.17334 1.72 0.52 2.12 s0.82 0.6 1.42 0.6 z M32.42 5.960000000000001 l-0.000019531 3.46 l-0.1 0.42 c0 -0.01334 0.13334 -0.05668 0.4 -0.13002 s0.63332 -0.11 1.1 -0.11 c0.69334 0 1.3333 0.10334 1.92 0.31 s1.09 0.52332 1.51 0.94998 s0.74666 0.97 0.98 1.63 s0.35 1.45 0.35 2.37 c0 0.72 -0.08334 1.3967 -0.25 2.03 s-0.44332 1.19 -0.82998 1.67 s-0.89332 0.86 -1.52 1.14 s-1.4 0.42 -2.32 0.42 l-0.53 0 l-0.94 -0.04 l-1.23 -0.12 l-1.4 -0.24 l0 -11.3 l-1.66 0 l1.28 -2.44 z M33.38 17.44 c0.32 0 0.62338 -0.039942 0.91004 -0.11994 s0.53332 -0.22 0.73998 -0.42 s0.37332 -0.46666 0.49998 -0.8 s0.19 -0.74668 0.19 -1.24 s-0.06 -0.91668 -0.18 -1.27 s-0.28 -0.64 -0.48 -0.86 s-0.43666 -0.38 -0.71 -0.48 s-0.56334 -0.15 -0.87 -0.15 c-0.16 0 -0.34666 0.01334 -0.56 0.04 s-0.38 0.05332 -0.5 0.07998 l0 5.14 c0.14666 0.02666 0.29666 0.04666 0.45 0.06 s0.32334 0.02 0.51 0.02 z M43.64 9.56 l0 10.44 l-3.02 0 l0 -7.22 l0.1 -0.72 l-1.72 0 l1.36 -2.5 l3.28 0 z M43.56 8.7 l-3 0 l0 -2.72 l3 0 l0 2.72 z M46 5.539999999999999 l3.02 0.000019531 l0 10.3 c0 0.34666 0.02 0.62666 0.06 0.84 s0.10334 0.38 0.19 0.5 s0.19666 0.2 0.33 0.24 s0.29334 0.06 0.48 0.06 c0.09334 0 0.2 -0.0033398 0.32 -0.01 s0.32 -0.03666 0.6 -0.09 l0.18 2.5 c-0.34666 0.10666 -0.67 0.17332 -0.97 0.19998 s-0.57 0.04 -0.81 0.04 c-1.0667 0 -1.9 -0.29 -2.5 -0.87 s-0.9 -1.5233 -0.9 -2.83 l0 -10.88 z M55.72 9.56 l0 10.44 l-3.02 0 l0 -7.22 l0.1 -0.72 l-1.72 0 l1.36 -2.5 l3.28 0 z M55.64 8.7 l-3 0 l0 -2.72 l3 0 l0 2.72 z M62.980000000000004 15.42 c-0.13334 -0.02666 -0.2733 -0.04338 -0.41996 -0.050038 s-0.27332 -0.01 -0.37998 -0.01 c-0.56 0 -1.0133 0.08666 -1.36 0.26 s-0.52 0.47334 -0.52 0.9 c0 0.26666 0.06334 0.47666 0.19 0.63 s0.28332 0.26668 0.46998 0.34002 s0.38332 0.11668 0.58998 0.13002 s0.38332 0.02 0.52998 0.02 c0.26666 0 0.56666 -0.03334 0.9 -0.1 l0 -2.12 z M61.94 13.219999999999999 c0.10666 0 0.24996 0.0033594 0.42996 0.01002 s0.38334 0.01666 0.61 0.03 c-0.01334 -0.52 -0.19668 -0.85666 -0.55002 -1.01 s-0.81 -0.23 -1.37 -0.23 c-0.30666 0 -0.66 0.03666 -1.06 0.11 s-0.83334 0.18334 -1.3 0.33 l-0.32 -1.1 c-0.04 -0.14666 -0.09666 -0.36 -0.17 -0.64 s-0.12334 -0.5 -0.15 -0.66 c0.66666 -0.22666 1.2967 -0.39 1.89 -0.49 s1.13 -0.15 1.61 -0.15 c1.4133 0 2.5066 0.33666 3.28 1.01 s1.16 1.75 1.16 3.23 l0 5.86 c-0.52 0.14666 -1.12 0.29 -1.8 0.43 s-1.4133 0.21 -2.2 0.21 c-0.69334 0 -1.3233 -0.06 -1.89 -0.18 s-1.0533 -0.32 -1.46 -0.6 s-0.72 -0.64666 -0.94 -1.1 s-0.33 -1.0067 -0.33 -1.66 s0.13666 -1.2 0.41 -1.64 s0.62668 -0.79 1.06 -1.05 s0.92 -0.44334 1.46 -0.55 s1.0833 -0.16 1.63 -0.16 z M71.54 9.92 c0.16 -0.10666 0.38332 -0.21 0.66998 -0.31 s0.61 -0.15 0.97 -0.15 c0.30666 0 0.55666 0.01334 0.75 0.04 s0.29 0.03332 0.29 0.01998 l0 2.66 c-0.30666 -0.02666 -0.60666 -0.03332 -0.9 -0.01998 c-0.25334 0.02666 -0.51668 0.07 -0.79002 0.13 s-0.52334 0.17 -0.75 0.33 c-0.26666 0.18666 -0.45666 0.44 -0.57 0.76 s-0.17 0.76 -0.17 1.32 l0 5.32 l-3 0 l0 -7.94 l-1.62 0 l1.28 -2.54 l3.34 0 l0 0.78 c0.06666 -0.05334 0.12666 -0.10668 0.18 -0.16002 c0.05334 -0.04 0.10668 -0.08334 0.16002 -0.13 s0.10668 -0.08332 0.16002 -0.10998 z M79.14 9.56 l0 10.44 l-3.02 0 l0 -7.22 l0.1 -0.72 l-1.72 0 l1.36 -2.5 l3.28 0 z M79.06 8.7 l-3 0 l0 -2.72 l3 0 l0 2.72 z M86.4 15.42 c-0.13334 -0.02666 -0.2733 -0.04338 -0.41996 -0.050038 s-0.27332 -0.01 -0.37998 -0.01 c-0.56 0 -1.0133 0.08666 -1.36 0.26 s-0.52 0.47334 -0.52 0.9 c0 0.26666 0.06334 0.47666 0.19 0.63 s0.28332 0.26668 0.46998 0.34002 s0.38332 0.11668 0.58998 0.13002 s0.38332 0.02 0.52998 0.02 c0.26666 0 0.56666 -0.03334 0.9 -0.1 l0 -2.12 z M85.36000000000001 13.219999999999999 c0.10666 0 0.24996 0.0033594 0.42996 0.01002 s0.38334 0.01666 0.61 0.03 c-0.01334 -0.52 -0.19668 -0.85666 -0.55002 -1.01 s-0.81 -0.23 -1.37 -0.23 c-0.30666 0 -0.66 0.03666 -1.06 0.11 s-0.83334 0.18334 -1.3 0.33 l-0.32 -1.1 c-0.04 -0.14666 -0.09666 -0.36 -0.17 -0.64 s-0.12334 -0.5 -0.15 -0.66 c0.66666 -0.22666 1.2967 -0.39 1.89 -0.49 s1.13 -0.15 1.61 -0.15 c1.4133 0 2.5066 0.33666 3.28 1.01 s1.16 1.75 1.16 3.23 l0 5.86 c-0.52 0.14666 -1.12 0.29 -1.8 0.43 s-1.4133 0.21 -2.2 0.21 c-0.69334 0 -1.3233 -0.06 -1.89 -0.18 s-1.0533 -0.32 -1.46 -0.6 s-0.72 -0.64666 -0.94 -1.1 s-0.33 -1.0067 -0.33 -1.66 s0.13666 -1.2 0.41 -1.64 s0.62668 -0.79 1.06 -1.05 s0.92 -0.44334 1.46 -0.55 s1.0833 -0.16 1.63 -0.16 z"></path></g></svg>